<?xml version="1.0" standalone="no"?>
<!DOCTYPE svg PUBLIC "-//W3C//DTD SVG 20010904//EN"
 "http://www.w3.org/TR/2001/REC-SVG-20010904/DTD/svg10.dtd">
<svg version="1.0" xmlns="http://www.w3.org/2000/svg"
 width="213.000000pt" height="91.000000pt" viewBox="0 0 213.000000 91.000000"
 preserveAspectRatio="xMidYMid meet">

<g transform="translate(0.000000,91.000000) scale(0.100000,-0.100000)"
fill="#000000" stroke="none">
<path d="M802 689 c-48 -26 -80 -38 -92 -34 -13 4 -22 1 -26 -9 -3 -8 -12 -17
-21 -20 -11 -4 -13 -2 -9 9 4 13 -8 15 -81 15 -92 0 -107 -8 -27 -15 27 -3 66
-10 87 -17 l39 -12 -44 -22 c-39 -21 -40 -23 -16 -24 14 0 50 11 80 25 40 19
70 25 120 25 67 0 91 11 69 33 -9 9 -14 9 -19 0 -8 -13 -52 -7 -52 7 0 4 18
19 40 34 36 24 52 46 33 46 -5 0 -41 -18 -81 -41z"/>
<path d="M165 618 c-4 -13 -17 -34 -29 -48 l-21 -25 21 18 c21 17 22 17 27
-10 3 -15 4 -57 1 -93 -4 -67 0 -71 10 -10 5 30 12 38 51 53 96 40 121 84 63
108 -18 8 -36 14 -40 14 -3 0 -10 3 -14 8 -4 4 -20 7 -35 7 -20 0 -30 -6 -34
-22z m122 -30 c23 -18 14 -37 -27 -58 -62 -32 -70 -28 -70 31 l0 52 42 -7 c23
-4 48 -12 55 -18z"/>
<path d="M982 598 c-12 -15 -20 -118 -9 -118 4 0 8 11 8 25 2 27 3 32 12 58
14 37 16 47 8 47 -5 0 -13 -6 -19 -12z"/>
<path d="M860 573 c-66 -44 -70 -47 -70 -55 0 -16 28 -7 42 14 27 41 37 14 29
-79 -1 -7 -17 -15 -36 -19 -19 -3 -35 -10 -35 -15 0 -11 3 -11 34 1 l26 10 0
-58 c1 -50 2 -55 14 -39 9 11 12 32 9 56 -5 36 -3 39 23 43 16 3 35 7 43 9 11
3 13 -11 12 -71 -2 -66 0 -73 12 -60 20 20 31 60 18 60 -6 0 -11 16 -11 35 0
31 3 35 40 46 22 7 40 16 40 20 0 9 -79 0 -102 -12 -9 -5 -28 -9 -42 -9 -31 0
-34 22 -12 93 8 26 11 49 8 50 -4 2 -23 -7 -42 -20z"/>
<path d="M1524 589 c-3 -6 -1 -16 5 -22 8 -8 11 -5 11 11 0 24 -5 28 -16 11z"/>
<path d="M785 580 c3 -5 8 -10 11 -10 2 0 4 5 4 10 0 6 -5 10 -11 10 -5 0 -7
-4 -4 -10z"/>
<path d="M1216 549 c-22 -25 -24 -34 -15 -46 10 -11 9 -29 -5 -82 -10 -37 -16
-80 -14 -95 l3 -26 38 25 c20 14 37 30 37 36 0 6 -7 3 -16 -5 -23 -24 -34 -19
-34 13 0 42 28 172 41 187 6 8 6 14 0 18 -5 3 -21 -8 -35 -25z"/>
<path d="M348 553 c-11 -13 -14 -30 -10 -58 l5 -40 13 55 c7 30 11 56 10 58
-2 1 -10 -6 -18 -15z"/>
<path d="M1521 534 c0 -11 3 -14 6 -6 3 7 2 16 -1 19 -3 4 -6 -2 -5 -13z"/>
<path d="M469 479 c-16 -17 -28 -34 -25 -36 2 -2 -3 -25 -10 -50 -29 -95 -10
-111 38 -33 32 52 48 56 48 12 0 -15 5 -34 10 -42 8 -12 15 -9 40 20 16 19 30
40 30 45 -1 6 -10 -1 -21 -14 -28 -34 -40 -14 -37 64 2 55 0 60 -20 63 -15 2
-33 -7 -53 -29z m41 -11 c0 -19 -52 -118 -62 -118 -4 0 -8 2 -8 4 0 5 20 67
32 99 10 27 38 38 38 15z"/>
<path d="M1935 490 c-18 -20 -18 -22 3 -65 23 -48 21 -70 -9 -86 -11 -5 -19
-14 -19 -20 0 -15 53 28 66 54 10 17 8 29 -9 64 -21 42 -21 43 -1 58 15 12 16
14 3 15 -9 0 -24 -9 -34 -20z"/>
<path d="M1592 479 c-8 -12 -20 -46 -28 -76 -27 -103 -11 -123 33 -43 l25 45
-26 -30 -26 -30 6 35 c10 52 31 100 45 100 8 0 10 -12 6 -35 -3 -19 -2 -35 2
-35 5 0 11 -18 15 -39 8 -52 19 -57 50 -24 30 32 35 54 7 29 -23 -21 -29 -13
-37 48 -5 30 -2 51 6 61 11 13 7 15 -26 15 -29 0 -43 -6 -52 -21z"/>
<path d="M1451 468 c-10 -18 -11 -20 0 -10 19 18 49 15 49 -5 0 -15 2 -16 10
-3 7 11 5 19 -7 28 -24 17 -36 15 -52 -10z"/>
<path d="M643 468 c-5 -7 -7 -28 -4 -47 l6 -34 11 46 c10 46 5 59 -13 35z"/>
<path d="M725 462 c-5 -4 -21 -21 -35 -37 l-25 -30 26 23 c14 12 28 22 31 22
3 0 4 -27 1 -60 -3 -33 -2 -60 3 -60 12 1 54 36 54 46 0 4 -5 3 -12 -4 -24
-24 -31 -12 -25 48 6 58 3 68 -18 52z"/>
<path d="M1860 460 c0 -5 5 -10 11 -10 5 0 7 5 4 10 -3 6 -8 10 -11 10 -2 0
-4 -4 -4 -10z"/>
<path d="M325 403 c-4 -21 -9 -45 -11 -55 -6 -21 7 -30 26 -17 12 7 13 9 1 9
-11 0 -12 11 -8 50 7 58 1 67 -8 13z"/>
<path d="M1426 409 c-3 -17 -6 -45 -6 -62 0 -29 1 -30 14 -11 9 12 11 23 5 30
-5 6 -6 25 -3 43 4 17 4 31 2 31 -3 0 -8 -14 -12 -31z"/>
<path d="M1500 422 c0 -6 -6 -17 -13 -24 -11 -11 -11 -16 -2 -25 10 -9 14 -5
19 19 3 17 4 33 1 36 -3 3 -5 0 -5 -6z"/>
<path d="M1754 389 c-3 -6 -2 -15 3 -20 5 -5 9 -1 9 11 0 23 -2 24 -12 9z"/>
<path d="M144 365 c-3 -14 -12 -25 -20 -25 -8 0 -14 -8 -14 -17 1 -14 6 -12
25 10 14 15 25 35 25 43 0 22 -9 16 -16 -11z"/>
<path d="M646 375 c-17 -17 -30 -54 -23 -62 3 -3 15 13 27 36 22 44 21 50 -4
26z"/>
<path d="M653 284 c-3 -9 0 -20 8 -25 10 -6 10 -9 2 -9 -7 0 -13 -6 -13 -13 0
-7 -10 -24 -22 -37 -15 -16 -18 -25 -10 -28 7 -2 12 -12 12 -21 0 -14 -13 -20
-57 -27 -31 -5 -58 -15 -61 -21 -6 -20 61 -16 126 8 31 11 91 31 132 44 148
46 149 47 130 75 -9 13 -11 13 -20 0 -8 -13 -10 -12 -10 3 0 15 -3 15 -20 5
-15 -10 -24 -10 -38 -1 -9 6 -16 16 -15 21 1 6 -15 13 -37 17 -22 4 -42 11
-46 16 -9 15 -54 10 -61 -7z m77 -24 c0 -5 -9 -8 -20 -7 -22 1 -27 13 -7 20
14 5 27 -1 27 -13z"/>
<path d="M1242 170 c0 -19 2 -27 5 -17 2 9 2 25 0 35 -3 9 -5 1 -5 -18z"/>
<path d="M1050 158 c0 -23 3 -29 9 -19 8 12 4 51 -5 51 -2 0 -4 -15 -4 -32z"/>
<path d="M1161 183 c-1 -6 -4 -20 -7 -30 -5 -17 -5 -17 6 0 6 10 9 23 6 30 -3
9 -5 9 -5 0z"/>
<path d="M1182 170 c0 -14 2 -19 5 -12 2 6 2 18 0 25 -3 6 -5 1 -5 -13z"/>
<path d="M1272 170 c0 -14 2 -19 5 -12 2 6 2 18 0 25 -3 6 -5 1 -5 -13z"/>
<path d="M1327 171 c-4 -17 -3 -21 5 -13 5 5 8 16 6 23 -3 8 -7 3 -11 -10z"/>
<path d="M1353 168 c1 -16 5 -28 9 -28 10 0 9 9 -2 35 -8 17 -8 16 -7 -7z"/>
<path d="M1405 180 c3 -5 8 -10 11 -10 2 0 4 5 4 10 0 6 -5 10 -11 10 -5 0 -7
-4 -4 -10z"/>
<path d="M1481 174 c0 -11 3 -14 6 -6 3 7 2 16 -1 19 -3 4 -6 -2 -5 -13z"/>
<path d="M1551 183 c-1 -6 -4 -20 -7 -30 -5 -17 -5 -17 6 0 6 10 9 23 6 30 -3
9 -5 9 -5 0z"/>
<path d="M1572 170 c0 -14 2 -19 5 -12 2 6 2 18 0 25 -3 6 -5 1 -5 -13z"/>
<path d="M1662 165 c0 -16 2 -22 5 -12 2 9 2 23 0 30 -3 6 -5 -1 -5 -18z"/>
<path d="M1684 175 c-3 -8 -4 -20 -1 -27 3 -7 6 -3 6 10 1 13 5 20 11 17 6 -3
10 -1 10 4 0 16 -20 13 -26 -4z"/>
<path d="M1132 160 c0 -14 2 -19 5 -12 2 6 2 18 0 25 -3 6 -5 1 -5 -13z"/>
<path d="M1432 160 c0 -14 2 -19 5 -12 2 6 2 18 0 25 -3 6 -5 1 -5 -13z"/>
<path d="M1633 165 c-3 -9 -3 -18 -1 -21 3 -3 8 4 11 16 6 23 -1 27 -10 5z"/>
<path d="M1720 160 c0 -11 2 -20 4 -20 2 0 6 9 9 20 3 11 1 20 -4 20 -5 0 -9
-9 -9 -20z"/>
<path d="M1301 154 c0 -11 3 -14 6 -6 3 7 2 16 -1 19 -3 4 -6 -2 -5 -13z"/>
<path d="M1391 154 c0 -11 3 -14 6 -6 3 7 2 16 -1 19 -3 4 -6 -2 -5 -13z"/>
<path d="M1521 154 c0 -11 3 -14 6 -6 3 7 2 16 -1 19 -3 4 -6 -2 -5 -13z"/>
<path d="M1471 134 c0 -11 3 -14 6 -6 3 7 2 16 -1 19 -3 4 -6 -2 -5 -13z"/>
</g>
</svg>
